<svg xmlns="http://www.w3.org/2000/svg" xmlns:xlink="http://www.w3.org/1999/xlink" width="383.647" height="313.795" viewBox="0 0 383.647 313.795">
  <defs>
    <clipPath id="clip-path">
      <rect id="長方形_50" data-name="長方形 50" width="383.647" height="313.795" fill="#fff"/>
    </clipPath>
  </defs>
  <g id="グループ_59" data-name="グループ 59" transform="translate(0 0.001)">
    <g id="グループ_58" data-name="グループ 58" transform="translate(0 -0.001)" clip-path="url(#clip-path)">
      <path id="パス_23" data-name="パス 23" d="M7.82,1.574c41.343-4.014,73-1.51,112.44,21.195,28.535,16.427,59.711,51.4,56.049,105.156C109,59.538,51.628,47.96,51.053,47.846c62.49,25.364,115.123,73.975,145.914,133.917,31.542-51.492,79.626-92.89,135.626-115.62-.575.114-57.944,11.692-125.256,80.079-3.662-53.758,27.514-88.729,56.049-105.156,39.445-22.7,71.1-25.208,112.44-21.195,11.047,37.839,10.59,79.6-2.647,110.35-8.3,19.293-21.944,36.254-39.808,47.3-38.727,23.95-90.816,5.756-109.929-7.3,0,0-8.8,10.386-18,29.638q-.823,1.726-1.653,3.551c-2.345,5.174-5.479,15.951-7.311,27.362a145.968,145.968,0,0,1,119.552,69.109,9.1,9.1,0,0,1-7.719,13.915H75.332a9.1,9.1,0,0,1-7.748-13.869,146.027,146.027,0,0,1,110.585-68.6c1.439-10.962,5.228-24.827,8.069-30.4-11.253-31.566-26.034-49-26.034-49-19.113,13.058-71.2,31.252-109.929,7.3-17.864-11.047-31.5-28.008-39.808-47.3C-2.77,81.174-3.227,39.413,7.82,1.574" transform="translate(0 0.001)" fill="#fff"/>
    </g>
  </g>
</svg>
